# xmcd
#
# Track frame offsets:
#	150
#	18139
#	32704
#	48306
#	65633
#	84170
#	103337
#	119926
#	136128
#	154243
#
# Disc length: 2253 seconds
#
# Revision: 3
# Processed by: cddbd v1.5.1PL2 Copyright (c) Steve Scherf et al.
# Submitted via: Rip'N'TagIt 1.3.0.1 
#
DISCID=8408cb0a
DTITLE=Ronnie Milsap - Greatest Hits Vol 2
DYEAR=1900
DGENRE=country
TTITLE0=She Keeps The Home Fires Burning
TTITLE1=(There's) No Gettin' Over Me
TTITLE2=I Wouldn't Have Missed It For The World
TTITLE3=It's Already Taken
TTITLE4=Stranger In My House
TTITLE5=Lost In The Fifties Tonight (In The Still Of The Night)
TTITLE6=Any Day Now
TTITLE7=Am I Losing You
TTITLE8=Inside
TTITLE9=Don't You Know How Much I Love You
EXTD=ID3G:   2
EXTT0=
EXTT1=
EXTT2=
EXTT3=
EXTT4=
EXTT5=
EXTT6=
EXTT7=
EXTT8=
EXTT9=
PLAYORDER=
